<?xml version="1.0" encoding="iso-8859-1"?>
<!-- Uploaded to: SVG Repo, www.svgrepo.com, Generator: SVG Repo Mixer Tools -->
<svg version="1.1" id="Layer_1" xmlns="http://www.w3.org/2000/svg" xmlns:xlink="http://www.w3.org/1999/xlink" 
	 viewBox="0 0 511.999 511.999" xml:space="preserve">
<path style="fill:#D8D8DA;" d="M439.173,261.452v-67.948h-41.174c-3.622-15.191-9.615-29.461-17.572-42.396l29.122-29.122
	l-48.047-48.047l-29.122,29.122c-12.935-7.957-27.204-13.95-42.396-17.572V44.315h-67.948v41.174
	c-15.191,3.622-29.461,9.616-42.396,17.572l-29.122-29.122l-48.047,48.047l29.122,29.122c-7.957,12.935-13.95,27.204-17.572,42.396
	H72.848v67.948h41.174c3.622,15.191,9.615,29.461,17.572,42.396l-29.122,29.122l48.047,48.047l29.122-29.122
	c12.935,7.957,27.204,13.95,42.396,17.572v22.309h67.948v-22.309c15.191-3.622,29.461-9.615,42.396-17.572l29.122,29.122
	l48.047-48.047l-29.122-29.122c7.957-12.935,13.95-27.204,17.572-42.396H439.173z"/>
<path style="fill:#C6C5CB;" d="M274.061,82.562c-5.919-0.73-11.934-1.15-18.05-1.15c-80.671,0-146.067,65.396-146.067,146.067
	s65.396,146.067,146.067,146.067c6.116,0,12.132-0.42,18.05-1.15c72.147-8.898,128.016-70.363,128.016-144.917
	S346.207,91.46,274.061,82.562z"/>
<path style="fill:#77767E;" d="M370.498,226.436c0-63.23-51.258-114.488-114.487-114.488s-114.488,51.258-114.488,114.488
	c0,54.355,37.878,99.861,88.678,111.566v53.775h51.617v-53.775C332.619,326.297,370.498,280.791,370.498,226.436z"/>
<rect x="230.201" y="371.219" style="fill:#57565C;" width="51.617" height="20.557"/>
<rect x="222.038" y="391.779" style="fill:#3340DC;" width="67.948" height="112.608"/>
<rect x="222.038" y="391.779" style="fill:#2732D9;" width="22.187" height="112.608"/>
<path style="fill:#D2E7F8;" d="M265.614,150.38c-3.149-0.389-6.349-0.612-9.603-0.612c-42.918,0-77.71,34.792-77.71,77.71
	s34.792,77.71,77.71,77.71c3.254,0,6.454-0.223,9.603-0.612c38.384-4.734,68.107-37.435,68.107-77.099
	S303.997,155.113,265.614,150.38z"/>
<path style="fill:#B3D8F5;" d="M197.507,227.478c0-39.664,29.723-72.364,68.107-77.099c-3.149-0.389-6.349-0.612-9.603-0.612
	c-42.918,0-77.71,34.792-77.71,77.71s34.792,77.71,77.71,77.71c3.254,0,6.454-0.223,9.603-0.612
	C227.23,299.842,197.507,267.142,197.507,227.478z"/>
<path style="fill:#FFFFFF;" d="M310.796,227.478h-15.23c0-21.812-17.746-39.557-39.557-39.557v-15.23
	C286.22,172.692,310.796,197.268,310.796,227.478z"/>
<g>
	<path style="fill:#010101;" d="M238.371,15.209L237.127,0.03c-17.811,1.459-35.413,5.012-52.318,10.558l4.749,14.47
		C205.328,19.884,221.751,16.571,238.371,15.209z"/>
	<path style="fill:#010101;" d="M157.408,38.638l-7.06-13.495c-15.77,8.251-30.594,18.376-44.061,30.092l9.997,11.489
		C128.853,55.788,142.69,46.338,157.408,38.638z"/>
	<path style="fill:#010101;" d="M91.894,91.713L80.164,82C68.773,95.753,59.01,110.826,51.145,126.8l13.663,6.727
		C72.148,118.62,81.261,104.552,91.894,91.713z"/>
	<path style="fill:#010101;" d="M52.024,166.016l-14.584-4.388c-5.122,17.024-8.239,34.707-9.266,52.56l15.205,0.873
		C44.336,198.398,47.244,181.897,52.024,166.016z"/>
	<path style="fill:#010101;" d="M468.621,214.7l15.204-0.9c-1.057-17.85-4.204-35.529-9.355-52.543l-14.577,4.414
		C464.699,181.544,467.636,198.04,468.621,214.7z"/>
	<path style="fill:#010101;" d="M405.472,55.009c-13.489-11.7-28.334-21.806-44.123-30.035l-7.04,13.506
		c14.736,7.68,28.592,17.112,41.184,28.034L405.472,55.009z"/>
	<path style="fill:#010101;" d="M326.848,10.47C309.934,4.953,292.327,1.431,274.511,0l-1.217,15.181
		c16.624,1.334,33.053,4.621,48.83,9.767L326.848,10.47z"/>
	<path style="fill:#010101;" d="M460.711,126.468c-7.886-15.953-17.667-31.005-29.078-44.738l-11.714,9.733
		c10.649,12.818,19.779,26.865,27.138,41.753L460.711,126.468z"/>
	<path style="fill:#010101;" d="M413.736,370.613l11.275,10.237c12.003-13.219,22.444-27.83,31.033-43.426l-13.34-7.347
		C434.688,344.634,424.941,358.271,413.736,370.613z"/>
	<path style="fill:#010101;" d="M345.856,420.646l6.433,13.805c16.136-7.518,31.413-16.957,45.408-28.052l-9.463-11.934
		C375.172,404.822,360.914,413.63,345.856,420.646z"/>
	<path style="fill:#010101;" d="M456.973,298.217l14.365,5.055c5.911-16.794,9.838-34.32,11.673-52.09l-15.148-1.565
		C466.15,266.2,462.486,282.55,456.973,298.217z"/>
	<path style="fill:#010101;" d="M29.049,251.564c1.864,17.767,5.822,35.286,11.761,52.072l14.358-5.082
		c-5.542-15.657-9.233-32.003-10.972-48.58L29.049,251.564z"/>
	<path style="fill:#010101;" d="M114.608,406.623c14.013,11.075,29.308,20.491,45.46,27.984l6.41-13.814
		c-15.071-6.992-29.346-15.78-42.426-26.118L114.608,406.623z"/>
	<path style="fill:#010101;" d="M56.153,337.745c8.615,15.582,19.079,30.174,31.099,43.37l11.259-10.256
		c-11.222-12.32-20.989-25.941-29.03-40.485L56.153,337.745z"/>
	<path style="fill:#010101;" d="M341.335,227.478c0-47.049-38.276-85.326-85.325-85.326s-85.326,38.277-85.326,85.326
		s38.277,85.325,85.326,85.325S341.335,274.526,341.335,227.478z M185.915,227.478c0-38.651,31.445-70.096,70.096-70.096
		c38.65,0,70.095,31.445,70.095,70.096s-31.445,70.095-70.095,70.095C217.359,297.573,185.915,266.129,185.915,227.478z"/>
	<path style="fill:#010101;" d="M297.599,384.162v-8.805c11.704-3.284,22.95-7.945,33.563-13.912l30.341,30.341l58.816-58.815
		l-30.342-30.341c5.967-10.612,10.629-21.859,13.913-33.563h42.898V185.89H403.89c-3.284-11.704-7.946-22.951-13.913-33.562
		l30.342-30.341l-58.816-58.816l-30.341,30.34c-10.612-5.967-21.858-10.628-33.563-13.912V36.701h-83.179v42.898
		c-11.704,3.284-22.951,7.946-33.562,13.912L150.518,63.17l-58.815,58.816l30.341,30.341c-5.967,10.613-10.629,21.859-13.912,33.562
		H65.233v83.177h42.898c3.283,11.704,7.945,22.949,13.912,33.563L91.702,332.97l58.815,58.815l30.341-30.341
		c10.612,5.967,21.858,10.628,33.562,13.912v8.805v15.23v36.994c-5.106-1.011-10.185-2.189-15.173-3.565l-4.048,14.681
		c6.31,1.74,12.751,3.218,19.222,4.41v60.087h83.179v-60.087c6.47-1.193,12.911-2.67,19.222-4.41l-4.049-14.681
		c-4.987,1.375-10.067,2.554-15.172,3.564V399.39v-15.228H297.599z M231.912,330.582c-48.736-11.229-82.773-54.055-82.773-104.146
		c0-58.93,47.943-106.873,106.873-106.873s106.873,47.943,106.873,106.873c0,50.09-34.037,92.917-82.773,104.146l-5.905,1.361v52.22
		h-36.387v-52.22L231.912,330.582z M183.631,345.409l-5.122-3.151l-27.99,27.989l-37.277-37.277l27.989-27.99l-3.151-5.121
		c-7.665-12.461-13.267-25.977-16.651-40.173l-1.394-5.849H80.463v-52.718h39.572l1.394-5.849
		c3.384-14.196,8.987-27.711,16.651-40.172l3.151-5.122l-27.989-27.99l37.277-37.278l27.99,27.99l5.122-3.151
		c12.459-7.664,25.975-13.266,40.172-16.651l5.849-1.394V51.93h52.719v39.572l5.849,1.394c14.196,3.384,27.713,8.987,40.172,16.651
		l5.122,3.151l27.989-27.99l37.278,37.278l-27.99,27.99l3.152,5.122c7.664,12.459,13.265,25.975,16.65,40.172l1.395,5.849h39.572
		v52.718h-39.572l-1.395,5.849c-3.385,14.197-8.988,27.713-16.65,40.172l-3.152,5.122l27.99,27.99l-37.278,37.277l-27.989-27.989
		l-5.122,3.151c-12.102,7.444-25.207,12.925-38.958,16.335v-17.842c24.118-6.871,45.855-21.24,61.704-40.911
		c17.395-21.59,26.975-48.777,26.975-76.555c0-67.327-54.775-122.103-122.103-122.103S133.908,159.11,133.908,226.437
		c0,27.778,9.58,54.965,26.975,76.555c15.85,19.672,37.587,34.041,61.704,40.911v17.842
		C208.836,358.333,195.731,352.853,183.631,345.409z M282.37,496.77h-52.719v-97.38h52.719V496.77z"/>
</g>
<g>
	<rect x="258.975" y="408.176" style="fill:#FFFFFF;" width="15.23" height="20.935"/>
	<rect x="258.975" y="437.976" style="fill:#FFFFFF;" width="15.23" height="42.528"/>
</g>
</svg>